<svg width="176" height="50" viewBox="0 0 176 50" fill="none" xmlns="http://www.w3.org/2000/svg">
<path d="M63 25C63 11.1929 74.1929 0 88 0C101.807 0 113 11.1929 113 25C113 38.8071 101.807 50 88 50C74.1929 50 63 38.8071 63 25Z" fill="#485EED"/>
<path d="M81.4036 16.9278C81.8359 16.4956 81.8359 15.7948 81.4036 15.3625C80.9714 14.9303 80.2706 14.9303 79.8383 15.3625L76.8867 18.3141C76.4544 18.7464 76.4544 19.4472 76.8867 19.8795L79.8383 22.8311C80.2706 23.2633 80.9714 23.2633 81.4036 22.8311C81.8359 22.3988 81.8359 21.698 81.4036 21.2657L80.3415 20.2037H95.379C95.9903 20.2037 96.4859 19.7081 96.4859 19.0968C96.4859 18.4855 95.9903 17.9899 95.379 17.9899H80.3415L81.4036 16.9278Z" fill="white"/>
<path d="M94.5964 27.169C94.1641 27.6012 94.1641 28.302 94.5964 28.7343L95.6585 29.7964H80.621C80.0097 29.7964 79.5141 30.292 79.5141 30.9032C79.5141 31.5145 80.0097 32.0101 80.621 32.0101H95.6585L94.5964 33.0722C94.1641 33.5045 94.1641 34.2053 94.5964 34.6375C95.0286 35.0698 95.7294 35.0698 96.1617 34.6375L99.1133 31.6859C99.5456 31.2537 99.5456 30.5528 99.1133 30.1206L96.1617 27.169C95.7294 26.7367 95.0286 26.7367 94.5964 27.169Z" fill="white"/>
<path d="M0.5 25.5H60" stroke="#D1D1D1" stroke-width="2.5" stroke-dasharray="10 5"/>
<path d="M116 26H175.5" stroke="#D1D1D1" stroke-width="2.5" stroke-dasharray="10 5"/>
</svg>
